<?xml version="1.0" encoding="UTF-8" standalone="no"?>
<!-- Created with Inkscape (http://www.inkscape.org/) -->

<svg
   xmlns:dc="http://purl.org/dc/elements/1.1/"
   xmlns:cc="http://creativecommons.org/ns#"
   xmlns:rdf="http://www.w3.org/1999/02/22-rdf-syntax-ns#"
   xmlns:svg="http://www.w3.org/2000/svg"
   xmlns="http://www.w3.org/2000/svg"
   xmlns:sodipodi="http://sodipodi.sourceforge.net/DTD/sodipodi-0.dtd"
   xmlns:inkscape="http://www.inkscape.org/namespaces/inkscape"
   id="svg3336"
   version="1.1"
   inkscape:version="0.91 r13725"
   width="1018.2"
   height="1018.2"
   viewBox="0 0 1018.2 1018.2"
   sodipodi:docname="logo2.svg">
  <metadata
     id="metadata3342">
    <rdf:RDF>
      <cc:Work
         rdf:about="">
        <dc:format>image/svg+xml</dc:format>
        <dc:type
           rdf:resource="http://purl.org/dc/dcmitype/StillImage" />
        <dc:title></dc:title>
      </cc:Work>
    </rdf:RDF>
  </metadata>
  <defs
     id="defs3340" />
  <sodipodi:namedview
     pagecolor="#ffffff"
     bordercolor="#666666"
     borderopacity="1"
     objecttolerance="10"
     gridtolerance="10"
     guidetolerance="10"
     inkscape:pageopacity="0"
     inkscape:pageshadow="2"
     inkscape:window-width="1920"
     inkscape:window-height="1029"
     id="namedview3338"
     showgrid="false"
     inkscape:snap-bbox="true"
     inkscape:zoom="0.29202357"
     inkscape:cx="-160.64598"
     inkscape:cy="193.94403"
     inkscape:window-x="0"
     inkscape:window-y="0"
     inkscape:window-maximized="1"
     inkscape:current-layer="svg3336" />
  <circle
     style="fill:#202d3c;fill-opacity:1"
     id="path3346"
     cx="516.11896"
     cy="507.1734"
     r="189.44221"
     inkscape:export-xdpi="7"
     inkscape:export-ydpi="7"
     inkscape:export-filename="/home/vintkor/Рабочий стол/65.png" />
  <g
     transform="matrix(0.0296849,0,0,-0.0296849,1155.0159,1008.5633)"
     id="g3414"
     style="fill:#000000;stroke:none">
    <path
       d="m -23495.806,33812.642 c -36,-90 -812,-1970 -820,-1987 -11,-23 -29,-27 -252,-68 -320,-58 -655,-131 -965,-208 -216,-54 -368,-97 -766,-213 l -51,-14 -979,783 c -538,431 -986,783 -994,783 -14,0 -2974,-1695 -2994,-1714 -5,-5 67,-494 166,-1124 l 174,-1115 -164,-128 c -493,-382 -891,-733 -1389,-1227 l -313,-309 -1322,206 c -1013,157 -1326,203 -1334,194 -6,-7 -401,-691 -878,-1520 -591,-1027 -865,-1512 -858,-1520 19,-25 1436,-1793 1449,-1808 12,-14 1,-47 -83,-255 -343,-847 -616,-1752 -799,-2644 -20,-96 -39,-176 -43,-178 -4,-2 -450,-184 -992,-405 l -985,-403 -3,-1950 -2,-1950 989,-403 989,-403 12,-67 c 24,-140 115,-548 181,-811 182,-727 406,-1410 683,-2083 l 65,-158 -735,-915 c -404,-502.9997 -734,-916.9997 -734,-918.9997 0,-3 1699,-2957 1745,-3036 2,-3 599,88 1327,202 l 1323,207 170,-173 c 502,-510 991,-947 1558,-1389 115,-90 136,-111 132,-129 -3,-12 -79,-501 -170,-1087 -91,-586 -167,-1074 -170,-1086 -4,-18 174,-123 1515,-893 l 1519,-872 977,782 c 538,430 983,782 989,782 5,0 87,-23 180,-51 511,-152 1139,-301 1629,-387 l 98,-18 23,-51 c 17,-36 858,-2072.9999764 902,-2182.99998 4,-10 358,-13 1723,-13 l 1718,0 15,37.000002 c 269,660.999998 920,2228.999978 928,2232.999978 6,4 43,13 82,19 161,28 609,127 867,192 430,107 892,244 1239,365 84,30 155,54 156,54 2,0 400,-300 886,-667 486,-367 891,-667 899,-667 13,0 3401,1904 3423,1923 4,4 -65,478 -153,1054 l -160,1047 43,38 c 607,549 1064,1017 1537,1577 157,186 416.0006,511 535.0006,672 85,116 92,122 120,117 77,-12 2271,-304 2289,-304 18,0 163,252 876,1517 470,835 854,1524.9997 854,1532.9997 0,8 -383,473 -852,1032 -469,559 -852,1021 -852,1026 0,6 24,99 54,209 180,666 346,1531 413,2158 l 8,70 1043,421 c 574,232 1045,424 1047,426 8,9 -56,3482 -65,3488 -5,3 -536,199 -1179,435 l -1169,429 -47,181 c -123,475 -316,1088 -470,1500 -37,99 -68,185 -68,190 0,6 327,446 727,978 l 727,968 -882,1464 c -638,1060 -887,1465 -900,1465 -10,0 -525,-77 -1144,-171 l -1127.0006,-170 -37,43 c -132,157 -434,482 -651,702 -436,442 -833,801 -1325,1201 -93,76 -171,141 -172,144 -1,3 60,404 136,891 77,487 136,888 132,892 -5,5 -2725,1569 -2779,1597 -22,12 -66,-22 -749,-570 l -726,-582 -76,28 c -42,15 -238,83 -436,149 -650,220 -1298,389 -1989,521 -98,19 -181,36 -183,38 -2,3 -746,1802 -830,2010 l -15,37 -1718,0 c -1365,0 -1719,-3 -1723,-12 z m 2413,-4789 c 3495,-186 6699,-1834 8890,-4574 738,-924 1352,-1977 1788,-3070 500.0006,-1251 772.0006,-2494 853.0006,-3900 25,-430 14,-1142 -26,-1635 -289,-3551 -2129.0006,-6794.9997 -5045.0006,-8894.9997 -2496,-1798 -5595,-2576 -8680,-2179 -2975,382 -5714,1868 -7685,4169 -828,966 -1517,2089.9997 -2000,3261.9997 -693,1679 -996,3451 -904,5283 166,3335 1700,6447 4254,8635 1406,1205 3092,2083 4880,2540 892,228 1772,350 2740,379 171,5 730,-4 935,-15 z"
       id="path3416"
       inkscape:connector-curvature="0"
       style="fill:#fd7b12;fill-opacity:1"
       inkscape:export-xdpi="7"
       inkscape:export-ydpi="7"
       inkscape:export-filename="/home/vintkor/Рабочий стол/65.png" />
    <path
       d="m -13417.293,15143.805 c -17,-11 -40,-33 -51,-49 -11,-15 -101,-210 -200,-433 -99,-223 -343,-771 -542,-1217 -388,-873 -383,-861 -341,-930 27,-46 149,-103 219,-103 92,0 92,0 345,565 156,349 227,499 237,497 8,-2 439,-193 959,-424 1073,-478 1030,-463 1098,-391 52,55 122,218 122,285 0,92 33,74 -1033,548 -526,234 -957,429 -957,435 0,5 97,228 216,495 119,267 221,500 226,518 21,75 -24,142 -124,187 -82,37 -134,42 -174,17 z"
       id="path3418"
       inkscape:connector-curvature="0"
       style="fill:#fd7b12;fill-opacity:1"
       inkscape:export-xdpi="7"
       inkscape:export-ydpi="7"
       inkscape:export-filename="/home/vintkor/Рабочий стол/65.png" />
    <path
       d="m -29974.293,14667.805 c -56,-16 -34,-6 -742,-351 -302,-148 -572,-283 -600,-300 -105,-67 -182,-172 -221,-300 -30,-97 -25,-307 10,-459 31,-133 78,-276 135,-404 61,-140 783,-1614 804,-1644 28,-37 82,-61 123,-55 60,10 153,59 190,100 68,75 81,41 -379,982 -443,907 -476,984 -485,1141 -9,178 12,203 293,339 l 210,102 21,-41 c 12,-22 243,-495 514,-1051 271,-555 503,-1022 517,-1037 36,-38 75,-51 126,-44 63,10 158,58 191,97 56,67 73,26 -492,1185 -281,577 -513,1054 -514,1061 -2,7 90,58 216,120 200,98 225,108 275,108 161,0 280,-145 527,-640 80,-159 155,-300 167,-313 50,-54 119,-50 231,11 77,42 101,74 100,136 0,39 -24,94 -151,351 -158,320 -240,456 -360,595 -115,132 -264,243 -391,292 -82,31 -238,41 -315,19 z"
       id="path3420"
       inkscape:connector-curvature="0"
       style="fill:#fd7b12;fill-opacity:1"
       inkscape:export-xdpi="7"
       inkscape:export-ydpi="7"
       inkscape:export-filename="/home/vintkor/Рабочий стол/65.png" />
    <path
       d="m -14971.293,11935.805 c -214,-45 -459,-178 -697,-377 -243,-204 -1554,-1349.996 -1568,-1370.996 -24,-36 -29,-88 -12,-126.999 13,-31 1416,-1658.0005 1549,-1796.0005 65,-68 109,-82 172,-55 52,24 200,152 221,192 19,36 19,93 1,128 -8,15 -133,164 -279,332 -161,185 -261,307 -254,311 7,4 518,169 1137,369 1041,335 1129,365 1178,402 94,70.0005 193,159.9995 213,191.9995 27,42 22,120 -11,163.999 -32,44 -101,76 -149,69 -20,-2 -412,-126.999 -870,-275.999 -459,-148.9995 -836,-269.9995 -837,-267.9995 -2,2 140,128 315,279.9995 175,153 369,328.999 429,391.998 109,113 207,245.999 262,353.999 109,216.999 112,433.999 8,595.999 -36,55 -289,346 -334,383 -127,105 -300,144 -474,106 z m 119,-444 c 53,-26 297,-309 311,-359 14,-50 13,-64 -9,-125 -22,-64.999 -79,-148.999 -155,-232.999 -47,-51.999 -1393,-1231.9965 -1432,-1254.9965 -8,-5 -103,96 -283,304 -149,171 -271,314.9995 -271,318.9995 0,8 1143,1005.996 1295,1129.996 246,202 432,277 544,219 z"
       id="path3422"
       inkscape:connector-curvature="0"
       style="fill:#fd7b12;fill-opacity:1"
       inkscape:export-xdpi="7"
       inkscape:export-ydpi="7"
       inkscape:export-filename="/home/vintkor/Рабочий стол/65.png" />
    <path
       d="m -27871.293,11849.805 c -42,-29 -70,-82 -70,-132 0,-21 68,-387 151,-811.999 84,-425.999 149,-776.997 146,-779.997 -3,-3 -335,-12 -739,-19 -952,-18 -927,-17 -974,-41.999 -74,-38 -105,-123.0005 -70,-192.0005 22,-41 145,-152 206,-185 l 54,-29 275,2 c 152,1 515,6 806,11 292,5 533,6 536,2 3,-4 72,-356 153,-782 165,-874 146,-809 266,-907 73,-60 152,-103 188,-103 73,0 142,78 142,161 0,24 -68,403 -151,842 -83,439 -149,800 -147,802 2,2 363,11 803,19 794,16 800,16 845,38 87,44 114,128 64,203 -26,40 -161,156.9995 -211,183.9995 -32,17 -76,17 -986,0 -329,-6 -601,-8 -604,-5 -3,3 -72,339.999 -153,747.997 -81,408.999 -150,753.999 -155,767.999 -10,33 -35,60 -124,133 -124,102 -185,120 -251,75 z"
       id="path3424"
       inkscape:connector-curvature="0"
       style="fill:#fd7b12;fill-opacity:1"
       inkscape:export-xdpi="7"
       inkscape:export-ydpi="7"
       inkscape:export-filename="/home/vintkor/Рабочий стол/65.png" />
    <path
       d="m -24761.293,9673.8095 c -19,-9 -44,-31 -56,-49 -23,-34 -595,-2302 -594,-2356 0,-45 26,-95 60,-116 36,-22 224,-71 271,-71 48,0 93,27 117,68 11,21 64,211 117,423 l 97,386 851,-213 c 469,-117 908,-221 977,-233 413,-68 723,-10 901,168 96,96 126,166 199,457 73,294 77,330 56,413 -25,96 -62,157 -151,247 -134,136 -351,260 -600,343 -110,37 -2158,551 -2194,551 -9,0 -32,-8 -51,-18 z m 1192,-666 c 475,-118 906,-229 958,-246 205,-67 333,-149 365,-235 l 17,-44 -52,-213 c -29,-117 -60,-229 -70,-249 -27,-52 -90,-104 -151,-125 -69,-23 -209,-23 -339,1 -93,16 -1797,438 -1805,447 -5,4 207,878 212,878 1,0 390,-96 865,-214 z"
       id="path3426"
       inkscape:connector-curvature="0"
       style="fill:#fd7b12;fill-opacity:1"
       inkscape:export-xdpi="7"
       inkscape:export-ydpi="7"
       inkscape:export-filename="/home/vintkor/Рабочий стол/65.png" />
    <path
       d="m -18554.293,9630.8095 c -202,-17 -332,-45 -968,-204 -503,-126 -634,-167 -817,-255 -283,-136 -446,-303 -498,-510 -33,-131 -23,-188 153,-891 92,-366 171,-660 187,-694 55,-122 157,-221 290,-285 192,-91 514,-104 856,-34 201,41 1023,251 1155,295 529,176 796,444 772,777 -5,80 -307,1307 -347,1415 -48,129 -153,250 -268,310 -84,44 -153,64 -267,77 -99,11 -119,11 -248,-1 z m 195,-448 c 60,-23 124,-83 146,-136 6,-16 77,-293 158,-615 152,-607 161,-661 132,-731 -51,-120 -243,-234 -526,-313 -189,-54 -930,-234 -1022,-250 -325,-55 -521,-10 -584,132 -21,49 -316,1235 -316,1270 1,15 7,44 14,65 44,122 177,218 417,302 101,35 927,246 1099,280 181,37 379,35 482,-4 z"
       id="path3428"
       inkscape:connector-curvature="0"
       style="fill:#fd7b12;fill-opacity:1"
       inkscape:export-xdpi="7"
       inkscape:export-ydpi="7"
       inkscape:export-filename="/home/vintkor/Рабочий стол/65.png" />
    <g
       style="fill:#fd7b12;stroke:none;fill-opacity:1"
       transform="matrix(1.009968,0,0,1.009968,-30634.516,20143.626)"
       id="g4347"
       inkscape:export-xdpi="7"
       inkscape:export-ydpi="7"
       inkscape:export-filename="/home/vintkor/Рабочий стол/65.png">
      <path
         inkscape:connector-curvature="0"
         d="m 8905,6921 c -56,-14 -101,-41 -142,-84 -23,-23 -377,-577 -788,-1230 -728,-1158 -747,-1190 -742,-1229 12,-87 107,-159 214,-161 98,-2 100,-1 349,378 l 223,340 43,6 c 24,4 383,12 798,18 415,6 854,14 975,17 l 220,5 235,-332 c 285,-403 306,-422 440,-406 129,15 210,107 210,236 l 0,60 -827,1131 c -456,621 -837,1144 -848,1162 -12,21 -42,44 -77,61 -48,25 -71,29 -155,33 -54,2 -111,0 -128,-5 z m 490,-1026 367,-520 -214,-6 c -487,-14 -1240,-22 -1237,-12 14,36 704,1072 710,1066 4,-4 173,-242 374,-528 z"
         id="path4349"
         style="fill:#202d3c;fill-opacity:1" />
      <path
         inkscape:connector-curvature="0"
         d="m 12570,6407 c -31,-7 -69,-22 -85,-34 -24,-17 -130,-225 -539,-1064 -280,-574 -516,-1062 -523,-1084 -19,-51 -10,-97 27,-138 33,-38 209,-126 268,-134 48,-6 92,14 125,59 13,18 205,405 427,861 222,455 406,827 409,827 3,0 278,-624 611,-1386 332,-762 619,-1408 637,-1435 22,-32 49,-57 81,-73 61,-31 146,-56 191,-56 52,0 118,37 159,89 48,61 1032,2078 1039,2130 7,51 -18,103 -65,133 -64,42 -217,108 -251,108 -39,0 -83,-22 -108,-53 -10,-13 -200,-398 -423,-855 -223,-458 -407,-832 -410,-832 -3,0 -266,597 -584,1328 -318,730 -597,1359 -619,1397 -99,170 -225,243 -367,212 z"
         id="path4351"
         style="fill:#202d3c;fill-opacity:1" />
      <path
         inkscape:connector-curvature="0"
         d="m 5380,6178 c -174,-19 -399,-91 -635,-203 -385,-182 -1786,-871 -1812,-891 -43,-33 -61,-89 -44,-143 15,-50 1026,-2125 1054,-2162 26,-36 87,-61 129,-52 18,3 78,28 133,55 144,70 180,117 157,203 -6,23 -89,202 -185,397 l -175,356 92,7 c 50,3 587,30 1193,60 l 1102,54 88,36 c 133,53 225,107 251,146 20,28 23,43 20,87 -7,79 -58,137 -134,151 -22,4 -435,-14 -919,-39 -484,-26 -881,-46 -882,-45 -2,1 167,84 375,185 207,101 420,208 472,238 340,194 548,432 582,667 19,132 0,197 -131,460 -84,169 -120,231 -156,268 -96,98 -200,148 -348,167 -92,11 -108,11 -227,-2 z m 148,-427 c 20,-10 47,-30 59,-43 32,-35 193,-379 193,-413 0,-90 -114,-217 -281,-316 -86,-51 -1670,-829 -1688,-829 -13,0 -372,743 -364,751 5,5 249,126 543,270 1062,518 1105,538 1260,578 101,27 228,28 278,2 z"
         id="path4353"
         style="fill:#202d3c;fill-opacity:1" />
      <path
         inkscape:connector-curvature="0"
         d="M 1535,3851 C 1501,3836 1401,3718 925,3130 611,2743 318,2377 273,2317 87,2065 10,1865 10,1628 c 0,-173 47,-297 150,-395 30,-29 289,-242 575,-473 393,-318 538,-430 592,-456 171,-83 367,-67 597,47 159,79 270,174 441,374 97,114 1089,1338 1149,1418 41,53 46,120 14,167 -32,48 -140,128 -183,136 -80,15 -79,16 -687,-736 -619,-766 -729,-888 -858,-955 -61,-31 -87,-39 -145,-42 -63,-4 -75,-1 -116,24 -25,15 -278,216 -562,446 -555,450 -547,443 -547,536 0,92 73,248 187,400 31,42 307,384 612,761 305,377 563,705 574,729 17,38 18,49 7,83 -14,49 -85,119 -154,153 -59,30 -69,30 -121,6 z"
         id="path4355"
         style="fill:#202d3c;fill-opacity:1" />
      <path
         inkscape:connector-curvature="0"
         d="m 16491,3599 c -117,-20 -171,-58 -716,-500 -286,-231 -548,-448 -583,-482 -156,-153 -193,-367 -108,-620 44,-133 124,-291 219,-434 95,-142 1206,-1513 1245,-1536 34,-19 78,-22 118,-7 33,13 118,80 146,115 29,37 35,103 13,146 -10,18 -264,338 -565,709 -614,759 -649,804 -707,915 -95,185 -96,304 -2,391 48,44 335,274 342,274 3,0 338,-410 744,-912 406,-501 752,-920 768,-930 17,-10 46,-18 66,-18 80,0 221,104 234,173 4,20 2,51 -4,69 -6,19 -338,437 -756,953 -410,506 -745,922 -744,925 1,9 360,294 393,312 54,30 132,23 212,-16 133,-67 253,-186 523,-521 85,-104 166,-200 180,-212 34,-29 84,-38 129,-25 42,13 135,86 163,128 23,36 24,95 2,137 -18,36 -322,413 -425,528 -176,196 -425,365 -617,418 -90,25 -198,33 -270,20 z"
         id="path4357"
         style="fill:#202d3c;fill-opacity:1" />
    </g>
  </g>
  <g
     id="g4281"
     transform="matrix(0.82789994,0,0,0.82789994,-859.22373,100.31698)"
     inkscape:export-xdpi="7"
     inkscape:export-ydpi="7"
     inkscape:export-filename="/home/vintkor/Рабочий стол/65.png">
    <path
       inkscape:connector-curvature="0"
       id="path3470"
       d="m 1634.3618,523.3287 -41.5206,0 -47.9413,-176.78367 37.6682,-52.22181 151.1008,0.42804 37.2401,51.79377 -47.9413,176.78367 z"
       style="fill:#ffffff;fill-rule:evenodd;stroke:none;stroke-width:1px;stroke-linecap:butt;stroke-linejoin:miter;stroke-opacity:1" />
    <path
       sodipodi:nodetypes="ccccccccc"
       inkscape:connector-curvature="0"
       id="path4272"
       d="m 1632.6963,520.90435 46.3093,-0.30268 c 3.1809,26.06313 65.8423,47.7742 64.4699,97.46148 -0.3598,17.12738 -8.3458,58.41372 -48.0037,72.3864 -20.1717,6.25616 -68.3469,8.74458 -89.7136,-25.16904 -23.0997,-43.38396 -5.2545,-42.62297 -21.49,-76.87955 19.1542,-8.26845 27.8662,7.91233 30.8729,24.21403 1.8148,53.49841 85.1527,48.30061 74.1555,-5.14548 -14.4648,-34.214 -50.2198,-49.38892 -56.6003,-86.56516 z"
       style="fill:#ffffff;fill-rule:evenodd;stroke:none;stroke-width:1px;stroke-linecap:butt;stroke-linejoin:miter;stroke-opacity:1" />
  </g>
</svg>
